<?xml version="1.0" encoding="UTF-8" standalone="no"?>
<!-- Created with Inkscape (http://www.inkscape.org/) -->

<svg
   xmlns:dc="http://purl.org/dc/elements/1.1/"
   xmlns:cc="http://creativecommons.org/ns#"
   xmlns:rdf="http://www.w3.org/1999/02/22-rdf-syntax-ns#"
   xmlns:svg="http://www.w3.org/2000/svg"
   xmlns="http://www.w3.org/2000/svg"
   xmlns:xlink="http://www.w3.org/1999/xlink"
   xmlns:sodipodi="http://sodipodi.sourceforge.net/DTD/sodipodi-0.dtd"
   xmlns:inkscape="http://www.inkscape.org/namespaces/inkscape"
   width="24"
   height="24"
   viewBox="0 0 24 24"
   version="1.1"
   id="svg8"
   inkscape:version="0.92.4 (unknown)"
   sodipodi:docname="parixa-logo.svg">
  <title
     id="title916">Parixa Logo</title>
  <defs
     id="defs2">
    <linearGradient
       inkscape:collect="always"
       id="linearGradient909">
      <stop
         style="stop-color:#f2f3bc;stop-opacity:1"
         offset="0"
         id="stop905" />
      <stop
         style="stop-color:#ffcfc5;stop-opacity:1"
         offset="1"
         id="stop907" />
    </linearGradient>
    <linearGradient
       inkscape:collect="always"
       xlink:href="#linearGradient909"
       id="linearGradient911"
       x1="12"
       y1="291.64999"
       x2="12"
       y2="313.64999"
       gradientUnits="userSpaceOnUse" />
  </defs>
  <sodipodi:namedview
     id="base"
     pagecolor="#ffffff"
     bordercolor="#666666"
     borderopacity="1.0"
     inkscape:pageopacity="0.0"
     inkscape:pageshadow="2"
     inkscape:zoom="25.893366"
     inkscape:cx="22.219619"
     inkscape:cy="11.97919"
     inkscape:document-units="px"
     inkscape:current-layer="layer1"
     showgrid="true"
     units="px"
     showguides="true"
     inkscape:guide-bbox="true"
     inkscape:window-width="1920"
     inkscape:window-height="1015"
     inkscape:window-x="0"
     inkscape:window-y="0"
     inkscape:window-maximized="1">
    <inkscape:grid
       type="xygrid"
       id="grid825"
       empspacing="4"
       empcolor="#d53fff"
       empopacity="0.25098039" />
  </sodipodi:namedview>
  <metadata
     id="metadata5">
    <rdf:RDF>
      <cc:Work
         rdf:about="">
        <dc:format>image/svg+xml</dc:format>
        <dc:type
           rdf:resource="http://purl.org/dc/dcmitype/StillImage" />
        <dc:title>Parixa Logo</dc:title>
        <cc:license
           rdf:resource="http://creativecommons.org/licenses/by-nc/4.0/" />
        <dc:creator>
          <cc:Agent>
            <dc:title>Sanjeev Premi</dc:title>
          </cc:Agent>
        </dc:creator>
        <dc:publisher>
          <cc:Agent>
            <dc:title>Sanjeev Premi</dc:title>
          </cc:Agent>
        </dc:publisher>
        <dc:description>Logo for Parixa</dc:description>
      </cc:Work>
      <cc:License
         rdf:about="http://creativecommons.org/licenses/by-nc/4.0/">
        <cc:permits
           rdf:resource="http://creativecommons.org/ns#Reproduction" />
        <cc:permits
           rdf:resource="http://creativecommons.org/ns#Distribution" />
        <cc:requires
           rdf:resource="http://creativecommons.org/ns#Notice" />
        <cc:requires
           rdf:resource="http://creativecommons.org/ns#Attribution" />
        <cc:prohibits
           rdf:resource="http://creativecommons.org/ns#CommercialUse" />
        <cc:permits
           rdf:resource="http://creativecommons.org/ns#DerivativeWorks" />
      </cc:License>
    </rdf:RDF>
  </metadata>
  <g
     inkscape:label="Layer 1"
     inkscape:groupmode="layer"
     id="layer1"
     transform="translate(0,-290.64999)">
    <path
       style="fill:url(#linearGradient911);fill-opacity:1;stroke:none;stroke-width:1px;stroke-linecap:butt;stroke-linejoin:miter;stroke-opacity:1"
       d="m 12,313.64999 10,-3 v -17 l -10,-2 -11,2 v 17 z"
       id="path903"
       inkscape:connector-curvature="0"
       inkscape:label="Shape" />
    <path
       style="opacity:1;fill:#fd0079;fill-opacity:1;stroke:none;stroke-width:0.99999988;stroke-linecap:round;stroke-linejoin:round;stroke-miterlimit:4;stroke-dasharray:none;stroke-opacity:1;paint-order:markers stroke fill"
       d="m 12.806222,294.64999 c -0.284314,0 -0.571355,-0.0144 -0.806222,10e-5 -0.0095,5.9e-4 0.0095,0.0224 0,0.0234 0,-0.54529 0,1.27994 0,1.91991 0.153646,-0.0185 0.309111,-0.0362 0.436124,-0.0469 0.185422,-0.0145 0.384025,-0.0215 0.594171,-0.0215 0.890026,0 1.593422,0.25308 2.112604,0.7617 0.531544,0.50864 0.798229,1.28767 0.798229,2.33398 0,0.56676 -0.105946,1.05207 -0.316091,1.45897 -0.210145,0.39237 -0.474828,0.73475 -0.796227,1.02538 -0.309038,0.27611 -0.649448,0.5014 -1.020292,0.67578 -0.370845,0.17439 -0.722543,0.31234 -1.056303,0.41407 l -0.150043,0.043 v 0.0879 l 4.265221,7.25971 c 0.333755,0.0436 0.668522,0.0645 1.002283,0.0645 0.420291,0 0.796564,-0.0209 1.130324,-0.0644 l -3.87511,-6.60558 0.222063,-0.13086 c 0.296676,-0.17439 0.599224,-0.39272 0.908261,-0.65429 0.321399,-0.27611 0.607015,-0.59568 0.854244,-0.95898 0.247231,-0.36331 0.449476,-0.77715 0.610175,-1.24218 0.1607,-0.46503 0.242069,-0.98206 0.242069,-1.54882 1e-6,-0.94458 -0.155095,-1.72166 -0.464132,-2.33202 -0.296677,-0.62487 -0.686238,-1.11911 -1.168336,-1.48241 -0.482096,-0.3633 -1.032398,-0.61639 -1.650472,-0.76171 -0.618073,-0.14532 -1.2421,-0.21875 -1.872536,-0.21875 z"
       id="rect864"
       inkscape:connector-curvature="0"
       inkscape:label="R"
       sodipodi:nodetypes="sccccscscccccccscccccccccsss" />
    <path
       style="opacity:1;fill:#1771f1;fill-opacity:1;stroke:none;stroke-width:1;stroke-linecap:round;stroke-linejoin:round;stroke-miterlimit:4;stroke-dasharray:none;stroke-opacity:1;paint-order:markers stroke fill"
       d="m 4,4 v 1.0917969 h 0.3164062 v 8.0781251 c 0,1.14096 0.4184615,2.023494 1.2539063,2.646484 0.3056506,0.20648 0.5683149,0.361747 0.7890625,0.466797 0.2241437,0.10504 0.4833245,0.158203 0.7753906,0.158203 h 0.3300782 c 0.098487,0.0145 0.2320277,0.02148 0.3984374,0.02148 0.4720604,0 0.9241619,-0.120325 1.3554688,-0.359375 0.292066,-0.13039 0.5433473,-0.329607 0.7539062,-0.597657 V 17.375 20 H 12 V 4 Z M 6.4472656,5.0917969 H 9.9726562 V 13.34375 c -0.07132,0.44552 -0.2667025,0.818224 -0.5859374,1.115234 -0.33282,0.29701 -0.7092308,0.445313 -1.1269532,0.445313 -0.4584758,0 -0.8630905,-0.148303 -1.2128906,-0.445313 -0.3464042,-0.29701 -0.5452717,-0.683713 -0.5996094,-1.158203 z"
       transform="translate(0,290.64999)"
       id="rect861"
       inkscape:connector-curvature="0"
       inkscape:label="P" />
  </g>
</svg>
