<?xml version="1.0" encoding="UTF-8"?><!DOCTYPE svg PUBLIC "-//W3C//DTD SVG 1.1//EN" "http://www.w3.org/Graphics/SVG/1.1/DTD/svg11.dtd"><svg xmlns="http://www.w3.org/2000/svg" xmlns:xlink="http://www.w3.org/1999/xlink" version="1.1" width="24" height="24" viewBox="0 0 24 24"><title>Parixa Logo</title><defs><linearGradient id="a" x1="12" x2="12" y1="291.65" y2="313.65" gradientUnits="userSpaceOnUse"><stop stop-color="#f2f3bc" offset="0"/><stop stop-color="#ffcfc5" offset="1"/></linearGradient></defs><g transform="translate(0 -290.65)"><path d="m12 313.65 10-3v-17l-10-2-11 2v17z" fill="url(#a)"/><path d="m12.806 294.65c-0.28431 0-0.57136-0.0144-0.80622 1e-4 -0.0095 5.9e-4 0.0095 0.0224 0 0.0234v1.9199c0.15365-0.0185 0.30911-0.0362 0.43612-0.0469 0.18542-0.0145 0.38402-0.0215 0.59417-0.0215 0.89003 0 1.5934 0.25308 2.1126 0.7617 0.53154 0.50864 0.79823 1.2877 0.79823 2.334 0 0.56676-0.10595 1.0521-0.31609 1.459-0.21014 0.39237-0.47483 0.73475-0.79623 1.0254-0.30904 0.27611-0.64945 0.5014-1.0203 0.67578-0.37084 0.17439-0.72254 0.31234-1.0563 0.41407l-0.15004 0.043v0.0879l4.2652 7.2597c0.33376 0.0436 0.66852 0.0645 1.0023 0.0645 0.42029 0 0.79656-0.0209 1.1303-0.0644l-3.8751-6.6056 0.22206-0.13086c0.29668-0.17439 0.59922-0.39272 0.90826-0.65429 0.3214-0.27611 0.60702-0.59568 0.85424-0.95898 0.24723-0.36331 0.44948-0.77715 0.61018-1.2422 0.1607-0.46503 0.24207-0.98206 0.24207-1.5488 1e-6 -0.94458-0.1551-1.7217-0.46413-2.332-0.29668-0.62487-0.68624-1.1191-1.1683-1.4824-0.4821-0.3633-1.0324-0.61639-1.6505-0.76171-0.61807-0.14532-1.2421-0.21875-1.8725-0.21875z" fill="#fd0079" style="paint-order:markers stroke fill"/><path transform="translate(0 290.65)" d="m4 4v1.0918h0.31641v8.0781c0 1.141 0.41846 2.0235 1.2539 2.6465 0.30565 0.20648 0.56831 0.36175 0.78906 0.4668 0.22414 0.10504 0.48332 0.1582 0.77539 0.1582h0.33008c0.098487 0.0145 0.23203 0.02148 0.39844 0.02148 0.47206 0 0.92416-0.12032 1.3555-0.35938 0.29207-0.13039 0.54335-0.32961 0.75391-0.59766v4.4941h2.0273v-16zm2.4473 1.0918h3.5254v8.252c-0.07132 0.44552-0.2667 0.81822-0.58594 1.1152-0.33282 0.29701-0.70923 0.44531-1.127 0.44531-0.45848 0-0.86309-0.1483-1.2129-0.44531-0.3464-0.29701-0.54527-0.68371-0.59961-1.1582z" fill="#1771f1" style="paint-order:markers stroke fill"/></g></svg>
